<?xml version="1.0" encoding="utf-8"?>
<!-- Generator: Adobe Illustrator 16.0.0, SVG Export Plug-In . SVG Version: 6.00 Build 0)  -->
<!DOCTYPE svg PUBLIC "-//W3C//DTD SVG 1.1//EN" "http://www.w3.org/Graphics/SVG/1.1/DTD/svg11.dtd">
<svg version="1.1" xmlns="http://www.w3.org/2000/svg" xmlns:xlink="http://www.w3.org/1999/xlink" x="0px" y="0px"
	 width="777.718px" height="185.254px" viewBox="0 0 777.718 185.254" enable-background="new 0 0 777.718 185.254"
	 xml:space="preserve">
<g id="Background_xA0_Image_1_">
</g>
<g id="trocobuy">
	<g>
		<path fill="#424041" d="M58.887,39.453v21.875h-18.75v41.797c0,8.464,0.179,13.396,0.537,14.795
			c0.357,1.4,1.172,2.556,2.441,3.467c1.27,0.912,2.815,1.367,4.639,1.367c2.539,0,6.216-0.879,11.035-2.637l2.344,21.289
			c-6.381,2.734-13.608,4.102-21.68,4.102c-4.948,0-9.409-0.83-13.379-2.49c-3.972-1.66-6.885-3.809-8.74-6.445
			s-3.142-6.201-3.857-10.693c-0.586-3.189-0.879-9.635-0.879-19.336V61.328H0V39.453h12.598V18.848L40.137,2.832v36.621H58.887z"/>
		<path fill="#424041" d="M89.199,143.164H61.758V39.453h25.488v14.746c4.361-6.966,8.284-11.556,11.768-13.77
			c3.482-2.212,7.437-3.32,11.865-3.32c6.25,0,12.271,1.726,18.066,5.176l-8.496,23.926c-4.624-2.994-8.92-4.492-12.891-4.492
			c-3.842,0-7.097,1.059-9.766,3.174c-2.67,2.116-4.77,5.942-6.299,11.475c-1.53,5.534-2.295,17.123-2.295,34.766V143.164z"/>
		<path fill="#424041" d="M119.414,89.844c0-9.114,2.246-17.935,6.738-26.465c4.492-8.528,10.855-15.039,19.092-19.531
			c8.235-4.492,17.432-6.738,27.588-6.738c15.689,0,28.548,5.095,38.574,15.283c10.025,10.19,15.039,23.063,15.039,38.623
			c0,15.69-5.063,28.695-15.186,39.014c-10.124,10.319-22.868,15.479-38.232,15.479c-9.506,0-18.571-2.148-27.197-6.445
			c-8.627-4.297-15.186-10.596-19.678-18.896S119.414,101.758,119.414,89.844z M147.539,91.309c0,10.287,2.441,18.164,7.324,23.633
			s10.904,8.203,18.066,8.203c7.161,0,13.167-2.734,18.018-8.203c4.849-5.469,7.275-13.411,7.275-23.828
			c0-10.156-2.426-17.969-7.275-23.438c-4.851-5.469-10.856-8.203-18.018-8.203c-7.163,0-13.184,2.734-18.066,8.203
			S147.539,81.022,147.539,91.309z"/>
		<path fill="#424041" d="M323.359,70.117L296.309,75c-0.913-5.403-2.979-9.473-6.201-12.207s-7.407-4.102-12.549-4.102
			c-6.836,0-12.29,2.36-16.357,7.08c-4.069,4.721-6.104,12.614-6.104,23.682c0,12.305,2.066,20.996,6.201,26.074
			c4.134,5.078,9.683,7.617,16.65,7.617c5.208,0,9.473-1.48,12.793-4.443c3.32-2.962,5.664-8.057,7.031-15.283l26.953,4.59
			c-2.8,12.37-8.171,21.713-16.113,28.027c-7.944,6.315-18.588,9.473-31.934,9.473c-15.17,0-27.263-4.785-36.279-14.355
			c-9.018-9.57-13.525-22.818-13.525-39.746c0-17.122,4.524-30.452,13.574-39.99c9.048-9.537,21.289-14.307,36.719-14.307
			c12.63,0,22.671,2.719,30.127,8.154C314.749,50.7,320.103,58.984,323.359,70.117z"/>
		<path fill="#424041" d="M322.813,89.844c0-9.114,2.246-17.935,6.738-26.465c4.492-8.528,10.855-15.039,19.092-19.531
			c8.235-4.492,17.432-6.738,27.588-6.738c15.688,0,28.547,5.095,38.573,15.283c10.025,10.19,15.039,23.063,15.039,38.623
			c0,15.69-5.063,28.695-15.186,39.014c-10.124,10.319-22.868,15.479-38.231,15.479c-9.506,0-18.571-2.148-27.197-6.445
			c-8.627-4.297-15.186-10.596-19.678-18.896S322.813,101.758,322.813,89.844z M350.938,91.309c0,10.287,2.441,18.164,7.324,23.633
			s10.904,8.203,18.066,8.203c7.161,0,13.167-2.734,18.017-8.203s7.275-13.411,7.275-23.828c0-10.156-2.426-17.969-7.275-23.438
			s-10.855-8.203-18.017-8.203c-7.163,0-13.184,2.734-18.066,8.203S350.938,81.022,350.938,91.309z"/>
		<path fill="#007FCC" d="M435.179,0h40.137v49.609c3.971-4.166,8.479-7.291,13.525-9.375c5.045-2.083,10.628-3.125,16.748-3.125
			c12.63,0,23.079,4.541,31.348,13.623c8.268,9.082,12.402,22.119,12.402,39.111c0,11.328-1.889,21.306-5.664,29.932
			c-3.776,8.627-9.001,15.072-15.674,19.336c-6.674,4.264-14.079,6.396-22.217,6.396c-6.967,0-13.347-1.498-19.141-4.492
			c-4.362-2.344-9.115-6.738-14.258-13.184v15.332h-37.207V0z M475.022,91.016c0,8.92,1.676,15.381,5.029,19.385
			c3.353,4.004,7.601,6.006,12.744,6.006c4.752,0,8.74-1.969,11.963-5.908c3.223-3.938,4.834-10.563,4.834-19.873
			c0-8.203-1.579-14.224-4.736-18.066c-3.158-3.841-6.982-5.762-11.475-5.762c-5.404,0-9.814,2.002-13.232,6.006
			S475.022,82.878,475.022,91.016z"/>
		<path fill="#007FCC" d="M657.659,143.164H620.55v-16.797c-5.534,6.901-11.117,11.816-16.748,14.746
			c-5.632,2.93-12.549,4.395-20.752,4.395c-10.938,0-19.516-3.271-25.732-9.814c-6.218-6.543-9.326-16.617-9.326-30.225V39.453
			h39.941v57.031c0,6.511,1.204,11.133,3.613,13.867c2.408,2.734,5.794,4.102,10.156,4.102c4.752,0,8.643-1.822,11.67-5.469
			c3.027-3.646,4.541-10.188,4.541-19.629V39.453h39.746V143.164z"/>
		<path fill="#007FCC" d="M655.354,39.453h41.938l21.392,69.043l19.867-69.043h39.166l-41.146,110.813
			c-4.687,12.64-9.47,21.174-14.35,25.604c-6.898,6.255-17.409,9.383-31.529,9.383c-5.729,0-14.578-0.781-26.552-2.344
			l-3.122-27.734c5.724,1.822,12.099,2.734,19.124,2.734c4.683,0,8.472-1.076,11.366-3.226c2.895-2.153,5.35-5.998,7.367-11.539
			L655.354,39.453z"/>
	</g>
</g>
</svg>
