<svg version="1.0" xmlns="http://www.w3.org/2000/svg"
 width="1280.000000pt" height="445.000000pt" viewBox="0 0 1280.000000 445.000000"
 preserveAspectRatio="xMidYMid meet">

<g transform="translate(0.000000,445.000000) scale(0.100000,-0.100000)">
<path fill="#9846d8"  d="M8745 4284 c8 -190 19 -223 80 -241 22 -7 78 -19 125 -27 105 -19
149 -48 208 -136 l44 -65 -5 -255 c-4 -198 -11 -298 -32 -450 -35 -259 -37
-438 -5 -530 44 -131 136 -244 248 -305 28 -15 52 -31 52 -35 0 -4 -28 -22
-62 -40 -113 -60 -202 -174 -242 -310 -21 -71 -22 -269 -1 -442 8 -71 21 -183
29 -250 63 -537 3 -708 -262 -738 -89 -10 -134 -28 -156 -63 -10 -15 -16 -72
-21 -185 l-7 -162 123 0 c553 2 849 238 898 718 11 107 2 223 -39 502 -62 421
-62 559 1 668 40 70 93 105 170 110 l59 4 0 183 0 183 -32 7 c-94 17 -124 30
-165 71 -30 31 -47 59 -59 100 -25 88 -14 351 25 609 83 535 40 788 -168 996
-154 153 -335 215 -690 235 l-124 7 8 -159z"/>
<path fill="#9846d8"  d="M3764 4419 c-76 -13 -211 -57 -284 -94 -178 -89 -289 -220 -350 -410
-19 -58 -24 -99 -28 -243 -5 -189 5 -319 45 -572 19 -121 26 -206 27 -320 1
-143 -1 -159 -23 -207 -38 -85 -117 -142 -196 -143 -44 -1 -46 -7 -43 -196 l3
-179 53 -7 c67 -10 101 -27 141 -73 59 -68 66 -94 65 -265 0 -120 -8 -204 -33
-375 -69 -466 -56 -721 46 -905 22 -39 71 -99 122 -151 73 -73 101 -93 181
-132 52 -25 127 -52 166 -61 85 -19 267 -36 382 -36 l82 0 0 93 c-1 137 -15
234 -36 259 -31 33 -74 50 -151 59 -126 14 -205 66 -255 168 -22 44 -23 57
-23 261 1 171 7 261 28 440 50 406 46 510 -23 657 -37 79 -131 177 -212 218
-32 17 -58 32 -58 35 0 3 21 16 47 30 76 40 188 153 223 224 69 140 73 258 23
651 -22 170 -27 253 -27 435 -1 219 0 226 23 274 29 59 83 115 133 139 20 9
74 22 120 28 46 6 97 17 113 25 54 25 60 44 63 222 l4 162 -149 -1 c-81 -1
-171 -5 -199 -10z"/>
<path fill="#9846d8"  d="M1685 3166 c-319 -167 -735 -384 -925 -484 l-345 -181 -3 -124 c-2
-92 1 -127 10 -134 7 -6 389 -207 848 -448 459 -240 873 -457 919 -481 46 -24
87 -44 93 -44 5 0 8 101 6 254 -3 290 -1 282 -94 344 -72 48 -891 457 -958
478 -31 10 -56 20 -56 24 0 3 24 15 53 25 114 41 752 362 941 473 119 71 116
61 116 355 0 191 -3 247 -12 247 -7 0 -274 -137 -593 -304z"/>
<path fill="#9846d8"  d="M10552 3228 c3 -276 6 -288 81 -335 139 -87 912 -481 992 -504 25 -7
45 -16 45 -19 0 -3 -30 -16 -67 -29 -68 -23 -553 -263 -823 -406 -235 -124
-224 -104 -228 -428 l-4 -249 224 116 c123 63 545 284 938 489 l715 374 0 134
0 134 -645 338 c-810 425 -1203 627 -1219 627 -10 0 -12 -54 -9 -242z"/>
<path fill="#9846d8"  d="M4949 1466 c-101 -41 -163 -98 -206 -191 -24 -52 -28 -72 -28 -155 0
-82 4 -103 27 -152 86 -185 290 -263 491 -188 69 26 150 97 182 161 69 135 50
323 -43 422 -107 115 -288 159 -423 103z"/>
<path fill="#9846d8"  d="M6287 1466 c-78 -33 -139 -81 -180 -143 -45 -68 -61 -136 -54 -233 9
-140 80 -244 205 -303 61 -29 75 -32 162 -31 117 0 186 25 259 90 87 78 129
206 111 337 -18 124 -86 213 -209 270 -54 26 -81 32 -151 34 -72 3 -94 0 -143
-21z"/>
<path fill="#9846d8"  d="M7660 1481 c-107 -35 -189 -102 -232 -188 -29 -58 -33 -80 -36 -158
-3 -73 0 -101 17 -146 30 -78 71 -132 133 -174 190 -125 464 -57 554 137 26
57 29 73 29 173 0 101 -2 114 -28 163 -38 71 -99 129 -177 166 -54 25 -79 31
-150 33 -47 1 -96 -1 -110 -6z"/>
</g>
</svg>
