<svg xmlns="http://www.w3.org/2000/svg" width="160.77" height="30.222" viewBox="0 0 160.77 30.222">
  <g id="Group_117" data-name="Group 117" transform="translate(-490.406 -438.543)">
    <path id="Path_1" data-name="Path 1" d="M0-.063a.6.6,0,0,1,.6-.6H8.173a7.031,7.031,0,0,1,7.042,6.947A7.071,7.071,0,0,1,8.2,13.36H5.1a.19.19,0,0,0-.191.191v7a.791.791,0,0,1-.788.788H.6a.6.6,0,0,1-.6-.6ZM7.89,8.771a2.468,2.468,0,0,0,2.483-2.484A2.4,2.4,0,0,0,7.89,3.961H5.1a.191.191,0,0,0-.191.191V8.58a.191.191,0,0,0,.191.191Z" transform="translate(518.131 439.518)" fill="#fff"/>
    <path id="Path_2" data-name="Path 2" d="M-.373-.053a.6.6,0,0,1,.566-.5H.7a.693.693,0,0,1,.534.315L8.523,13.338h.063L15.879-.241a.692.692,0,0,1,.534-.315h.5a.6.6,0,0,1,.566.5l3.552,21.124a.576.576,0,0,1-.6.692H16.727a.64.64,0,0,1-.6-.5l-1.414-9.713h-.063L9.372,21.732a.736.736,0,0,1-.535.346H8.271a.684.684,0,0,1-.534-.346L2.425,11.547H2.361L.978,21.26a.61.61,0,0,1-.6.5h-3.71a.576.576,0,0,1-.6-.692Z" transform="translate(543.505 439.099)" fill="#fff"/>
    <path id="Path_3" data-name="Path 3" d="M0-.063a.6.6,0,0,1,.6-.6H13.611a.6.6,0,0,1,.6.6V3.363a.6.6,0,0,1-.6.6H5.094a.191.191,0,0,0-.19.191V7.667a.19.19,0,0,0,.19.191H11.88a.791.791,0,0,1,.788.788v3.236a.6.6,0,0,1-.6.6H5.094a.19.19,0,0,0-.19.191v3.861a.19.19,0,0,0,.19.191h8.517a.6.6,0,0,1,.6.6v3.426a.6.6,0,0,1-.6.6H.6a.6.6,0,0,1-.6-.6Z" transform="translate(571.903 439.518)" fill="#fff"/>
    <path id="Path_4" data-name="Path 4" d="M0-.083A.791.791,0,0,1,.788-.871H8.236a11,11,0,1,1,0,22H.757A.756.756,0,0,1,0,20.377ZM7.922,16.481a5.991,5.991,0,0,0,5.861-4.437A6.585,6.585,0,0,0,7.375,3.75H5.1a.191.191,0,0,0-.191.191V16.29a.19.19,0,0,0,.191.191Z" transform="translate(593.467 439.729)" fill="#fff"/>
    <path id="Path_5" data-name="Path 5" d="M0-.083A.791.791,0,0,1,.788-.871h3.39a.791.791,0,0,1,.788.788V20.345a.791.791,0,0,1-.788.788H.788A.791.791,0,0,1,0,20.345Z" transform="translate(618.868 439.729)" fill="#fff"/>
    <path id="Path_6" data-name="Path 6" d="M-.544-2.26a1.17,1.17,0,0,1-1.131.754H-5.133a.555.555,0,0,1-.535-.816L4.171-23.478a.64.64,0,0,1,.535-.346H5.02a.638.638,0,0,1,.534.346L15.394-2.322a.554.554,0,0,1-.534.816H11.37c-.566,0-.817-.188-1.1-.786L4.937-14.073a.081.081,0,0,0-.148,0Z" transform="translate(635.719 462.367)" fill="#fff"/>
    <path id="Path_7" data-name="Path 7" d="M-.514-.257A2.452,2.452,0,0,1-2.966,2.2,2.452,2.452,0,0,1-5.418-.257,2.452,2.452,0,0,1-2.966-2.709,2.452,2.452,0,0,1-.514-.257" transform="translate(643.548 458.667)" fill="#49cbd3"/>
    <path id="Path_8" data-name="Path 8" d="M-1.806,0A.535.535,0,0,1-1.119.51V13.358A8.9,8.9,0,0,1-10.109,22.1a8.863,8.863,0,0,1-8.928-8.739V5.506a.534.534,0,0,1,.383-.512l3.992-1.185a.534.534,0,0,1,.687.512v8.785a3.846,3.846,0,0,0,3.866,3.961A3.878,3.878,0,0,0-6.18,13.106V1.7A.534.534,0,0,1-5.8,1.183Z" transform="translate(509.443 439.08)" fill="#fff"/>
    <path id="Path_12" data-name="Path 12" d="M-1.795,0a.791.791,0,0,1,.788.788v3.39a.791.791,0,0,1-.788.788H-18.136a.791.791,0,0,1-.788-.788V.788A.791.791,0,0,1-18.136,0Z" transform="translate(509.33 463.799)" fill="#49cbd3"/>
  </g>
</svg>
